# xmcd
#
# Track frame offsets: 
#        150
#        19414
#        34720
#        52409
#        71676
#        89880
#        106323
#        124748
#        138996
#        154579
#
# Disc length: 2218 seconds
#
# Revision: 0
# Processed by: cddbd v1.5.2PL0 Copyright (c) Steve Scherf et al.
# Submitted via: ExactAudioCopy v1.0b3
#
DISCID=9108a80a
DTITLE=Hui United - From Love Comes Everything
DYEAR=2013
DGENRE=Pop
TTITLE0=แม่
TTITLE1=เพื่อนเก่า
TTITLE2=ใจหมา
TTITLE3=เธอ
TTITLE4=ไม่เร็วไม่ช้า
TTITLE5=Friend
TTITLE6=จักรยาน
TTITLE7=เป็นไปได้
TTITLE8=หนอนผีเสื้อ
TTITLE9=พระมหาชนก
EXTD=
EXTT0=
EXTT1=
EXTT2=
EXTT3=
EXTT4=
EXTT5=
EXTT6=
EXTT7=
EXTT8=
EXTT9=
PLAYORDER=
